<?xml version="1.0" standalone="no"?>
<!DOCTYPE svg PUBLIC "-//W3C//DTD SVG 1.1//EN" "http://www.w3.org/Graphics/SVG/1.1/DTD/svg11.dtd" >
<svg xmlns="http://www.w3.org/2000/svg">
<metadata>
Created by FontForge 20120731 at Mon Mar 14 16:42:35 2016
 By Ads
</metadata>
<defs>
<font id="iconfont" horiz-adv-x="1024" >
  <font-face 
    font-family="iconfont"
    font-weight="500"
    font-stretch="normal"
    units-per-em="1024"
    panose-1="2 0 6 3 0 0 0 0 0 0"
    ascent="896"
    descent="-128"
    x-height="792"
    bbox="0 -224 1508 896"
    underline-thickness="50"
    underline-position="-100"
    unicode-range="U+0078-E61A"
  />
<missing-glyph horiz-adv-x="374" 
d="M34 0v682h272v-682h-272zM68 34h204v614h-204v-614z" />
    <glyph glyph-name=".notdef" horiz-adv-x="374" 
d="M34 0v682h272v-682h-272zM68 34h204v614h-204v-614z" />
    <glyph glyph-name=".null" horiz-adv-x="0" 
 />
    <glyph glyph-name="nonmarkingreturn" horiz-adv-x="341" 
 />
    <glyph glyph-name="x" unicode="x" horiz-adv-x="1001" 
d="M281 543q-27 -1 -53 -1h-83q-18 0 -36.5 -6t-32.5 -18.5t-23 -32t-9 -45.5v-76h912v41q0 16 -0.5 30t-0.5 18q0 13 -5 29t-17 29.5t-31.5 22.5t-49.5 9h-133v-97h-438v97zM955 310v-52q0 -23 0.5 -52t0.5 -58t-10.5 -47.5t-26 -30t-33 -16t-31.5 -4.5q-14 -1 -29.5 -0.5
t-29.5 0.5h-32l-45 128h-439l-44 -128h-29h-34q-20 0 -45 1q-25 0 -41 9.5t-25.5 23t-13.5 29.5t-4 30v167h911zM163 247q-12 0 -21 -8.5t-9 -21.5t9 -21.5t21 -8.5q13 0 22 8.5t9 21.5t-9 21.5t-22 8.5zM316 123q-8 -26 -14 -48q-5 -19 -10.5 -37t-7.5 -25t-3 -15t1 -14.5
t9.5 -10.5t21.5 -4h37h67h81h80h64h36q23 0 34 12t2 38q-5 13 -9.5 30.5t-9.5 34.5q-5 19 -11 39h-368zM336 498v228q0 11 2.5 23t10 21.5t20.5 15.5t34 6h188q31 0 51.5 -14.5t20.5 -52.5v-227h-327z" />
    <glyph glyph-name="uniE600" unicode="&#xe600;" 
d="M954 341h-884q-3 0 -6.5 1t-6.5 2t-6 3t-5 5l-4 4q-2 3 -3.5 6t-2 6.5t-0.5 7.5q0 7 2.5 13t7 11t11 7.5t13.5 2.5h884q15 0 25 -10t10 -24.5t-10 -24.5t-25 -10zM909 543q-15 0 -25 10t-10 25v149h-149q-14 0 -24.5 10t-10.5 24q0 10 5 18t12.5 12.5t17.5 4.5h184
q14 0 24 -10t10 -25v-183q0 -6 -1.5 -11.5t-5 -9.5t-7.5 -7t-9.5 -5t-10.5 -2zM300 727h-149v-149q0 -10 -5 -18t-13 -12.5t-17 -4.5t-17 4.5t-12.5 12.5t-4.5 18v183q0 10 4.5 18t12.5 12.5t17 4.5h184q7 0 13.5 -3t11 -7.5t7 -11t2.5 -13.5q0 -14 -10 -24t-24 -10z
M116 203q14 0 24.5 -10t10.5 -24v-150h149q9 0 17 -4.5t12.5 -12.5t4.5 -17q0 -14 -10 -24t-24 -10h-184q-14 0 -24 10t-10 24v184q0 14 10 24t24 10zM725 19h149v150q0 14 10 24t24.5 10t24.5 -10t10 -24v-184q0 -14 -10 -24t-24 -10h-184q-14 0 -24.5 10t-10.5 24t10.5 24
t24.5 10z" />
    <glyph glyph-name="uniE601" unicode="&#xe601;" 
d="M229 535h24q2 0 3.5 0.5t3 1.5t3 2.5t2 3.5t0.5 4v263q0 3 -1 5t-2.5 3.5t-4 2.5t-4.5 1h-24q-5 0 -8.5 -3.5t-3.5 -8.5v-263q0 -3 1 -5t2.5 -3.5t3.5 -2.5t5 -1zM361 535h72q12 0 12 12v263q0 12 -12 12h-72q-5 0 -8.5 -3.5t-3.5 -8.5v-263q0 -5 3.5 -8.5t8.5 -3.5z
M768 535h24q5 0 8.5 3.5t3.5 8.5v263q0 5 -3.5 8.5t-8.5 3.5h-24q-2 0 -3.5 -0.5t-3 -1.5t-3 -2.5t-2 -3.5t-0.5 -4v-263q0 -5 3.5 -8.5t8.5 -3.5zM672 391v-216q0 -6 2 -11.5t5.5 -10t7.5 -7.5t9.5 -5t11.5 -2q10 0 18.5 5t13 13t4.5 18v216q0 6 -1.5 11.5t-5 10t-8 7.5
t-10 5t-11.5 2q-10 0 -18 -5t-13 -13t-5 -18zM876 535h60q2 0 4 0.5t3 1.5l3 3q1 1 1.5 3t0.5 4v263q0 5 -3.5 8.5t-8.5 3.5h-60q-5 0 -8.5 -3.5t-3.5 -8.5v-263q0 -5 3.5 -8.5t8.5 -3.5zM696 547v263q0 5 -3.5 8.5t-8.5 3.5h-72q-2 0 -3.5 -0.5t-3 -1.5t-2.5 -2.5t-2 -3.5
t-1 -4v-263q0 -5 3.5 -8.5t8.5 -3.5h72q5 0 8.5 3.5t3.5 8.5zM519 427h-437q-8 0 -14.5 -6.5t-6.5 -15.5v-436q0 -5 1.5 -8.5t4.5 -6.5t7 -5t8 -2h437q9 0 15 6.5t6 15.5v436q0 3 -0.5 5.5t-1.5 4.5t-2.5 4t-3 3.5t-4 2.5t-4.5 1.5t-5 0.5zM469 19h-336v336h336v-336z
M924 235q-15 0 -25.5 -10.5t-10.5 -25.5v-180h-180q-15 0 -25.5 -10.5t-10.5 -25t10.5 -25.5t25.5 -11h216q15 0 25.5 11t10.5 25v216q0 15 -10.5 25.5t-25.5 10.5zM85 535h60q12 0 12 12v263q0 4 -1.5 6.5t-4.5 4t-6 1.5h-60q-5 0 -8.5 -3.5t-3.5 -8.5v-263q0 -5 3.5 -8.5
t8.5 -3.5zM924 427q-10 0 -18 -5t-13 -13t-5 -18v-48q0 -15 10.5 -25.5t25.5 -10.5q10 0 18 5t13 13t5 18v48q0 15 -10.5 25.5t-25.5 10.5zM253 115h96q4 0 7.5 1.5t6.5 3.5t5 5t3.5 6.5t1.5 7.5v96q0 10 -7 17t-17 7h-96q-10 0 -17 -7t-7 -17v-96q0 -10 7 -17t17 -7z
M522 535q4 0 7.5 1t6 2.5t3.5 3.5t1 5v263q0 5 -5 8.5t-12.5 3.5t-12.5 -3.5t-5 -8.5v-263q0 -12 17 -12z" />
    <glyph glyph-name="uniE602" unicode="&#xe602;" horiz-adv-x="1025" 
d="M721 451q-15 0 -30 -2q-32 105 -129 174.5t-212 69.5q-146 0 -249 -89q-98 -87 -99 -207v-3q0 -128 114 -220l-21 -61q-1 -4 -1.5 -7.5t-0.5 -7t0.5 -7t2 -7t3.5 -6.5l4 -6q2 -3 5 -6q12 -10 28 -10q11 0 20 4l93 47l3 -1q61 -12 98 -12q44 0 83 8q15 -39 43.5 -72.5
t65.5 -57t83.5 -37t95.5 -13.5q12 0 25 1.5t25 3.5q23 -14 54 -37q15 -11 35 -11q7 0 14.5 2t14.5 6q32 18 30 56l-3 36l6 5q26 19 45.5 41t30 42t17 42.5t8.5 39.5t2 37q0 43 -15.5 83t-44 72.5t-66 57.5t-84 38.5t-94.5 13.5zM350 153q-31 0 -87 11l-12 3q-10 2 -19 -3
l-68 -33l15 44q7 21 -11 34q-53 38 -80 85t-27 100q0 99 84.5 169.5t204.5 70.5q66 0 125.5 -28.5t99 -72.5t57.5 -94q-95 -25 -155.5 -95t-60.5 -158q0 -6 0.5 -13t1.5 -14q-40 -6 -68 -6zM886 31l-31 -24l5 -68q-70 50 -81 50h-1q-16 -4 -30 -6t-27 -2q-101 0 -173 60.5
t-72 145t72 144.5t173 60q99 0 172 -60.5t73 -144.5q0 -86 -62 -140q-9 -8 -18 -15zM616 249zM575 248.5q0 17.5 12 29.5t29.5 12t29.5 -12t12 -29.5t-12 -29.5t-29.5 -12t-29.5 12t-12 29.5zM824 249zM783 249q0 17 12 29t29 12q12 0 21.5 -5.5t15 -15t5.5 -20.5
q0 -18 -12 -30t-30 -12q-11 0 -20.5 5.5t-15 15t-5.5 21.5zM219 481zM177 481q0 5 1 9.5t3 8.5t5 8t6.5 6.5t8 5t9 3.5t9.5 1q11 0 20.5 -5.5t15 -15.5t5.5 -21q0 -6 -1.5 -11t-4 -9.5t-6.5 -8.5t-8.5 -7t-10 -4.5t-10.5 -1.5q-11 0 -21 6t-15.5 15.5t-5.5 20.5zM475 481z
M434 481q0 11 5.5 21t15 15.5t21 5.5t21 -5.5t15 -15.5t5.5 -21q0 -17 -12 -29.5t-30 -12.5q-11 0 -20.5 6t-15 15.5t-5.5 20.5z" />
    <glyph glyph-name="uniE603" unicode="&#xe603;" 
d="M693 465q16 0 35 -2q-23 109 -127.5 181.5t-238.5 72.5q-98 0 -181 -40.5t-132 -111.5t-49 -156q0 -144 145 -245l-36 -109l127 64q7 -2 21.5 -4.5t22 -4t19.5 -4t21 -3.5t20.5 -1.5t21.5 -0.5h18q8 0 16 1q-11 38 -11 76q0 78 41 144t112 104.5t155 38.5zM498 563
q5 0 10 -1t9 -2.5t7.5 -3.5t6.5 -5t5.5 -7t4 -8t2 -8.5t0.5 -9.5q0 -21 -12 -33.5t-33 -12.5q-14 0 -26 5.5t-20 16.5t-8 24q0 19 16.5 32t37.5 13zM244 472q-21 0 -37.5 13t-16.5 33q0 13 8 23.5t20.5 16t25.5 5.5q21 0 33.5 -12.5t12.5 -32.5q0 -14 -5.5 -24t-16 -16
t-24.5 -6zM1024 182q0 71 -43 132t-113.5 96t-151.5 35q-85 0 -156 -35t-111.5 -95.5t-40.5 -132.5q0 -109 89.5 -186t218.5 -77q35 0 109 18l99 -54l-27 90q38 29 65.5 60.5t44.5 70.5t17 78zM616 228q-13 0 -24.5 11t-11.5 24.5t11.5 25t24.5 11.5q20 0 33 -11t13 -25
q0 -7 -3.5 -13.5t-9.5 -11.5t-14.5 -8t-18.5 -3zM816 228q-14 0 -25 11t-11 25q0 5 2 10.5t5.5 10t8 8t9.5 5.5t11 2t12.5 -1.5t11 -4t9 -6t7 -7.5t4 -8.5t1.5 -8.5q0 -9 -5.5 -17.5t-16 -13.5t-23.5 -5zM816 228z" />
    <glyph glyph-name="uniE604" unicode="&#xe604;" 
d="M395 -160q-3 0 -6.5 1t-6 2.5t-5 3.5t-4.5 4.5t-3 5.5q-14 33 -76 139l-12 22q-6 11 -12 22.5t-10.5 21t-10.5 22t-9.5 21t-9 21t-8.5 19.5t-9 20q-12 30 -19 46t-18.5 38.5t-21.5 39.5q-25 43 -2 83q12 21 36.5 34t53.5 13q17 0 32.5 -4.5t28.5 -13.5l3 255q1 15 5.5 31
t14.5 33t29.5 27.5t44.5 10.5q21 0 37 -6.5t28 -19.5q27 -30 25 -77l3 -114q9 4 19 6t21 2q15 0 27 -2.5t22.5 -6.5t18.5 -10.5t14 -14.5q6 -7 10 -15q21 9 50 7q42 -3 65 -31q10 -12 15 -28q11 4 24 5t27 -2q31 -7 49.5 -30t23.5 -46t3 -44l1 -108q0 -6 -0.5 -16.5
t-3.5 -39t-9.5 -57.5t-21.5 -68t-36 -75q-54 -93 -63 -110q-1 -2 -2 -3.5t-3 -3.5q-8 -11 -22 -10h-327zM242 365q-14 0 -26 -5.5t-17 -14.5q-7 -12 2 -28q23 -40 62 -131q15 -35 23.5 -54.5t24 -51t30.5 -57.5q27 -47 44.5 -78.5t26.5 -50.5h295q13 24 59 101
q29 50 44.5 109.5t17 82t1.5 35.5l-1 110v1v1q1 1 1 3t-0.5 7t-1 9.5t-2 10.5t-4 11t-6 10t-9 8.5t-12.5 4.5q-5 2 -9 2t-7 -1t-8.5 -8t-8.5 -19q-1 -4 -1.5 -8t-1.5 -5v-2q-3 -10 -11.5 -16t-19 -4t-17 10t-5.5 19v2t0.5 6t1.5 8q6 42 -9 60q-2 2 -4 3.5t-5 3.5t-7.5 3
t-10.5 1q-18 2 -27.5 -4t-11.5 -26l1 -26q0 -10 -7 -18t-17 -10q-7 -1 -13.5 2t-11 8t-5.5 12q-3 15 -2 34v17q0 4 1 7q0 3 0.5 6.5t-0.5 12.5t-6 14q-9 13 -38 13q-15 0 -25 -7t-13 -27l1 -54q0 -11 -6.5 -19t-17.5 -9q-4 0 -8 0.5t-7.5 2.5t-6.5 4.5t-5 6t-2 7.5
q-7 33 -3 64l-5 191v3q1 7 -1.5 18.5t-9.5 18.5q-4 5 -10 7t-14 2q-13 0 -22 -6.5t-12.5 -16.5t-4.5 -15.5t-2 -10.5l-4 -329q0 -5 -1.5 -9.5t-4.5 -8t-7 -6t-9 -3.5q-9 -1 -17.5 3.5t-12.5 13.5q-19 49 -62 49z" />
    <glyph glyph-name="uniE605" unicode="&#xe605;" 
d="M415 514q-1 8 -2 15.5t-2 13.5q-20 7 -36 23q-24 26 -24 64q0 18 6 34t18 29q25 26 60 26q18 0 32.5 -6.5t27.5 -19.5q24 -26 24 -63q0 -13 -2.5 -24t-8 -21t-13.5 -19q1 -5 2.5 -9.5t3 -9.5t2.5 -10l10 10q16 17 24 37.5t8 45.5q0 48 -32.5 82t-77.5 34t-77.5 -34
t-32.5 -82q0 -25 8 -45.5t24 -37.5q25 -27 58 -33zM720 306q-1 0 -1 1q-13 29 -34 53q-27 30 -64 36l-18 1l-11 20q-2 4 -6 7q-22 21 -52 22l-18 -4v2h-1l-55 223q-3 10 -7 16.5t-8 8.5t-9.5 2t-10.5 -1q-1 0 -3 -0.5t-7 -3t-8 -6.5t-5 -11.5t-1 -16.5l55 -312q1 -6 1 -10
q0 -21 -14 -38q-3 -6 -8 -7q-9 -1 -16.5 0t-15 4t-13.5 9q-6 5 -12 13t-10 15t-9.5 16.5t-8.5 14.5q-1 2 -8 14.5t-12 17.5q-12 14 -30.5 19t-32.5 -5q-5 -5 -7.5 -12.5t0.5 -13.5q2 -3 6 -8.5t6.5 -9t5.5 -8t5 -8.5q3 -7 5.5 -14.5t5.5 -17.5q1 -1 1.5 -4.5t1.5 -7t1.5 -7
t2 -6.5t2.5 -4q3 -3 8 -12.5t6 -10.5q22 -34 27 -48q7 -12 19 -39q14 -34 25 -49q43 -57 82 -77q19 -12 29 -32l12 -64q18 4 75.5 14.5t108.5 20t59 10.5l-12 55v1q4 17 11 43q4 17 4 34q1 4 1 9v9q0 4 0.5 9t0.5 9.5t0.5 9t0.5 9.5v9q0 5 0.5 9t0.5 9v9q0 8 2 16
q2 19 -8.5 42.5t-34.5 25.5z" />
    <glyph glyph-name="uniE606" unicode="&#xe606;" 
d="M902 103q-2 -13 -3.5 -45.5t-6 -52.5t-16.5 -27q-9 -11 -135 -62.5t-134 -41.5q-16 23 -41.5 39t-50 24.5t-60 27t-66.5 45.5q-27 24 -55.5 39.5t-58.5 22.5q-12 3 -29 4.5t-32.5 1t-32 0.5t-29 3t-21.5 7.5t-11 14.5q-8 32 26.5 58t97.5 15q76 -15 116 -6t40 38
q0 10 -26 95.5t-57.5 188.5t-41.5 143q-12 42 -6 69.5t37 35.5q10 2 19.5 -2t16 -10.5t14 -20t12 -23.5t11.5 -28q12 -30 24.5 -85.5t23 -91.5t24.5 -42q1 1 2.5 13t7 24t15 21.5t30 6t49.5 -22.5q3 1 7.5 10t8.5 19t12.5 18t19 10.5t28 -6.5t38.5 -30q8 -6 12 -3t9 8.5
t9 13t12 11t18 3t26.5 -11t37.5 -32.5q75 -76 97.5 -200t11.5 -186zM407 692q3 14 3 27q0 47 -33.5 80.5t-80.5 33.5t-80.5 -33.5t-33.5 -80.5q0 -33 16.5 -60t44.5 -42l12 -61q-59 13 -97 60t-38 108q0 71 50 121.5t121 50.5q35 0 66.5 -13.5t54.5 -36.5t36.5 -55t13.5 -67
q0 -57 -34 -103z" />
    <glyph glyph-name="uniE607" unicode="&#xe607;" 
d="M611 593q18 -4 29.5 -19.5t13.5 -37.5v-10q0 -5 1 -12q1 -15 1 -32q0 -8 -0.5 -15.5t-1 -14t-1.5 -10.5t-3 -6q-5 -5 -9 -5q-4 -2 -4 -4v-3q0 -1 -0.5 -3t-0.5 -5v-6q-2 -14 -7 -39q-1 -3 -2 -6.5t-2 -6.5t-2.5 -5.5t-2.5 -5.5q-6 -11 -12 -19q-8 -10 -16 -17
q-1 -11 -1 -20v-16v-8q0 -3 1 -6q0 -5 1 -8t3 -5q4 -4 16 -7q4 -2 14 -5q11 -3 25 -8q3 -1 13.5 -5t16.5 -6q20 -7 29 -10q15 -6 26 -10q2 -1 4 -1.5t3.5 -1.5t2.5 -2h4q1 -1 2 -1q5 -3 9.5 -5.5t7 -5.5t4.5 -6q3 -4 5 -9.5t4 -12.5q1 -2 1.5 -5.5t1.5 -9t1 -11.5
q3 -19 6 -39q4 -20 6 -38q1 -18 2 -23q1 -10 -3.5 -17t-19.5 -11q-14 -4 -39.5 -7t-60 -6.5t-74.5 -5.5q-13 0 -27 -0.5t-29 -1t-29.5 -0.5t-29.5 0.5t-29 0.5t-28 1q-40 1 -75 4t-61 6q-4 1 -8.5 1.5t-8 1t-7 1.5t-6.5 1l-6 2q-3 0 -5 1q-4 1 -8.5 3t-9 5.5t-7 9t-1.5 11.5
t5 25q3 19 8 41q3 12 5 22t4 19q1 5 1.5 8.5t1.5 6.5t1.5 5.5t0.5 3.5q3 9 9 19q2 4 5 7.5t7 7t8 7.5q7 5 26 11l20 6l20 6q21 6 39 9.5t23 5.5q6 1 11.5 2.5t9.5 3.5q9 3 9 10v45q-8 7 -16 16q-7 7 -14.5 17t-12.5 21q-6 10 -9.5 20t-4.5 18q-3 18 -4 21t-6 5q-3 1 -5 3
t-3 5q-6 14 -6 29q1 14 2 42q3 28 9.5 53t29.5 46q4 3 9 6t10.5 6t12.5 5q20 6 40 10q21 3 39 3q19 0 28 -3q10 -3 17 -6q3 -2 5.5 -3.5t4.5 -3.5l2 -2l2 -2l2 -2q2 -3 4 -4q4 -3 11 -2q3 0 8.5 -0.5t13.5 -1.5zM538 163l21 -81l35 92l-33 24zM481 199l-32 -25l36 -92l19 82
zM762 506q11 -2 18 -11t8 -23v-13q1 -9 1 -18.5t-0.5 -17.5t-2.5 -10q-3 -3 -6 -2q-1 0 -2 -1t-1 -2v-4v-6q0 -8 -4 -24q-1 -2 -1.5 -4.5t-1.5 -5t-2 -4.5q-2 -3 -3.5 -6t-3.5 -5q-4 -5 -10 -10q-1 -6 -1 -12v-18q1 -5 4 -8l9 -4q4 -1 15 -4q4 -2 8 -3.5t8.5 -3t9.5 -2.5
q22 -8 25 -10q3 -1 5 -2l6 -2q2 -1 3.5 -1.5t2.5 -1.5l4 -2q2 -1 4 -2.5t3 -2.5l2 -2l2 -4q1 -2 2 -4.5t1 -5.5q1 -2 1.5 -5.5t1.5 -9.5q0 -6 1 -12t2 -11q0 -4 0.5 -7t1 -5.5t0.5 -5.5t1 -5q1 -11 1 -14l-2 -10q-2 -4 -12 -6q-8 -2 -20 -4q-13 -2 -33 -4q-2 9 -5 18
q-3 8 -6 17q-1 3 -2 5.5t-2.5 4.5t-3.5 5q-8 11 -18 18q-2 2 -4 3l-6 4q-2 1 -4 2.5t-5 2.5q-10 5 -19 8q-8 2 -19 5q-40 15 -64.5 20.5t-27.5 8.5l-1 3q-1 1 -1 3q-1 3 -1 7q0 2 0.5 4t0.5 5q11 3 17 4q6 0 8 1q7 2 12 4q3 1 4.5 2.5t1.5 3.5v27l-2 1l-3 1q-1 1 -3 4
q2 5 4.5 11t4.5 14q5 13 9 30q4 18 7 43q1 5 1 9l2 10v8v9q1 15 1 27v24q10 2 20 2q6 0 10 -0.5t7 -1.5q14 -4 16.5 -7.5t6.5 -6.5q3 -1 6.5 -1t12.5 -1zM722 255l6 -21l14 -5l11 28l-17 14zM681 269l-13 -13v-3l25 -7l3 8zM330 523q-12 2 -25 1q-11 -1 -24 -4q-4 -1 -7 -2
l-6 -2l-6 -4q-3 -1 -5 -3q-10 -6 -15.5 -14.5t-8.5 -18.5q-2 -8 -3 -16t-1 -13q0 -4 -0.5 -6.5t-0.5 -6t-1 -5.5v-9q0 -3 1 -6l3 -9q0 -1 1 -2t2 -1l2 -2h2l3 -11q0 -3 0.5 -6.5t2 -7t2.5 -6.5q4 -10 9 -16q2 -4 6 -7.5t7 -7.5q1 -1 2 -2.5t2.5 -2.5t3.5 -3v-9v-14
q-1 -4 -4 -7.5t-11 -4.5q-2 0 -5 -1t-8 -2q-3 -1 -9.5 -2.5t-10.5 -2.5l-6 -2l-8 -2q-3 -1 -7 -2q-5 -2 -9 -3t-8 -3q-23 -11 -27 -37q-4 -14 -7 -32q-4 -19 -6 -26q-1 -4 -1 -8.5t1 -8.5q2 -8 13 -11q2 0 3.5 -0.5t3 -0.5t3.5 -0.5t4 -0.5q9 -1 16 -3q10 -1 19 -2q1 9 4 19
q3 8 7 17t11 17q6 7 15 13q5 4 9 7t9 6l20 14l-7 19l17 14l18 -21l10 3h1q2 0 3.5 1t2.5 1l15 17l14 -11q4 1 7 2q2 0 7 1l8 2l15 3q3 1 4.5 3t1.5 5t0.5 5t0.5 3v3q-8 3 -13 5l-11 3l-9 3q-6 2 -7 6.5t-1 11.5v8q0 4 1 8q0 4 1 9l-4 4l-2 6q-2 2 -3.5 5t-3.5 5l-11 22
q-1 4 -2.5 8t-3 8.5t-2.5 8.5q-4 18 -5 39q-1 10 -1.5 19.5t0.5 17.5q0 19 2 38zM330 523z" />
    <glyph glyph-name="uniE608" unicode="&#xe608;" 
d="M382 200q24 13 39 27q-24 36 -39 80v-107zM691 218h125v62h-125v-62zM454 271q6 10 10 21t8 23h-42q10 -23 24 -44zM869 633h-680q-40 0 -68.5 -28.5t-28.5 -68.5v-535l145 2h632q40 0 68.5 28.5t28.5 68.5v436q0 16 -5 31t-14 27t-21 21t-26.5 13.5t-30.5 4.5zM289 290
v-77v-9q0 -4 -0.5 -8t-1.5 -7.5t-2 -6.5t-2.5 -5.5t-3.5 -4.5t-4.5 -3.5t-5.5 -3.5q-18 -10 -67 -10q-3 25 -16 52q7 -1 16 -1h14h10q8 0 8 8v63l-37 -9l-11 55q20 4 48 10v54h-44v52h44v68h55v-68h32v-52h-32v-42l30 7l6 -53zM506 155q-29 13 -50 33q-11 -10 -24 -19
t-28 -16q-8 14 -22 29v-26h-54v338h197q0 -13 -1 -19q-2 -73 -15 -88q-7 -7 -16 -10.5t-21 -4.5q-19 -1 -57 0q-1 10 -5 22.5t-9 20.5q25 -1 47 -1q10 0 14 3q5 4 6 27h-86v-81h106l10 2l34 -10q-9 -75 -40 -124q11 -10 24 -17.5t28 -12.5q-6 -5 -13.5 -13.5t-13.5 -17
t-11 -15.5zM872 328v-173h-56v14h-125v-14h-54v111q-24 -8 -52 -15q-4 12 -12.5 27t-15.5 23q62 13 115 36q-22 20 -39 34l42 31q24 -17 48 -37q20 13 37 27.5t30 30.5h-109q-34 -29 -80 -52q-16 27 -37 44q84 35 124 95l61 -13q-4 -6 -9 -12.5t-10 -13.5h95l9 3l38 -22
q-17 -37 -44.5 -68t-62.5 -56h107z" />
    <glyph glyph-name="uniE609" unicode="&#xe609;" 
d="M513 468q-33 0 -63.5 -13t-52.5 -35t-35 -52.5t-13 -64.5q0 -67 48 -115.5t116 -48.5t116.5 48.5t48.5 116t-48.5 116t-116.5 48.5zM513 193q-45 0 -77.5 32.5t-32.5 78t32.5 77.5t78 32t77.5 -32t32 -78q0 -22 -8.5 -42.5t-23.5 -35t-35 -23.5t-43 -9zM861 425h-16l-1 4
l-4 -2l4 3q-3 6 -4.5 10.5t-3.5 8.5l-2 3l12 11q32 33 32 79t-32 79l-15 15q-11 10 -23.5 17.5t-26.5 11t-29 3.5q-46 0 -79 -32l-11 -12l-3 2l-10 4q-5 2 -11 4l-3 1v16q0 46 -32.5 79t-78.5 33h-21q-46 0 -79 -33t-33 -79v-16l-3 -1q-11 -4 -20 -8l-3 -2l-11 12
q-8 8 -17.5 14t-19.5 10t-20.5 6t-21.5 2q-23 0 -43 -8.5t-36 -23.5l-15 -15q-33 -33 -33 -79t33 -79l11 -11l-1 -3q-2 -4 -4 -8.5t-4 -10.5l-2 -5h-16q-46 0 -78.5 -32.5t-32.5 -78.5v-21q0 -46 32.5 -79t78.5 -33h16l2 -4q2 -6 4 -10.5t4 -8.5l1 -3l-11 -11
q-16 -16 -24.5 -36.5t-8.5 -42.5q0 -46 33 -79l15 -15q33 -33 79 -33t79 33l11 11l3 -1q4 -2 9.5 -4t10.5 -4l3 -2v-16q0 -46 33 -78.5t79 -32.5h21q46 0 78.5 32.5t32.5 78.5v16l3 2l6 2l6 2l4 2q3 1 5 2l3 1l11 -11q33 -33 79 -33t79 33l15 15q32 33 32 79t-32 79l-12 11
l2 3q3 7 8 19l-5 2h5l1 2h16q46 0 79 33t33 79v21q0 46 -33 78.5t-79 32.5zM916 343zM783 610zM111 263zM206 35zM472 -98zM553 -99zM919 293q0 -6 -2 -11q0 -1 -1 -4v-2q-1 -3 -2 -5q0 -1 -3 -5v-1q-1 -2 -2 -3q-1 -3 -5 -7l-1 -1l-7 -7q-7 -4 -14.5 -7t-14.5 -4h-2h-4h-56
l-1 -4q-10 -43 -35 -83l-2 -3l40 -41q7 -6 11 -14.5t5 -18.5q1 -3 1 -5v-4v-3l-1 -7q0 -1 -1 -3l-1 -2v-1l-1 -4q-1 -2 -1.5 -2.5t-1.5 -3.5l-1 -1l-2 -3q-3 -5 -7 -9l-15 -14l-4 -4l-4 -4q-1 0 -3 -1l-1 -1l2 -4l-4 3q-2 -1 -4 -1.5t-5 -1.5l2 -5l-3 4h-1l-3 -1
q-2 0 -3.5 -0.5t-3.5 -0.5h-5h-2h-2q-2 0 -4 1q-19 2 -33 16l-40 40l-3 -2q-40 -25 -83 -36h-4v-56v-4v-2q-2 -16 -12 -29q-3 -4 -6 -7l-2 -2q-2 -1 -3.5 -2t-2.5 -3q-1 0 -3 -1l-2 -1l-5 -2q-1 -1 -5 -2l-2 -1q-2 0 -3 -1q-6 -1 -11 -1h-21q-6 0 -11 1q-1 1 -2 1h-2l-2 1
l-5 2q-2 0 -5 2l-1 1h-1q-1 1 -2 1q-4 3 -7 6l-1 1q-2 1 -3.5 3t-3.5 4q-10 13 -11 29v2v4v56l-4 1q-43 10 -83 35l-4 2l-40 -41q-13 -13 -33 -16h-7h-5q-2 0 -4 0.5t-4 0.5l-2 1h-2l-1 -4v5l-5 2q-1 0 -5 2l-1 1q-2 1 -3 1q-5 4 -9 7l-15 15q-4 5 -7 9q0 1 -2 3l-1 2
q-1 3 -2 5l-1 5l-1 2q-1 2 -1 3q-1 2 -1 9v1v5v5q3 19 16 32l41 41l-2 3q-25 40 -36 83v4h-57h-3l-1 -5l-1 5q-8 1 -15.5 4t-14.5 8q-1 1 -3 2.5t-3 3.5q-1 0 -2 2q-3 3 -5 6q0 1 -1 2l-4 -2l3 4v1h-1l-2 4l-1 6l-1 2l-1 3l-1 11v21q0 6 1 11q0 1 1 4l1 2l1 5q1 1 3 5l1 1
q1 2 1 3q1 1 2 2.5t1 2.5l3 2l1 1q2 3 7 7q13 9 29 11h2h3h56l1 4q6 21 14.5 42t21.5 41l2 3l-41 41q-13 13 -16 33v9v2q0 6 1 8l1 3l1 3l1 4l2 5l1 1l-4 2l5 -1q1 2 1 3q3 4 7 8l15 15q4 4 9 7l2 2h1l2 1q3 2 4 3l5 1l3 1q2 1 3 1q2 0 8 1h2h1h4q2 0 5 -1q19 -2 32 -16
l40 -40l4 2q20 12 41 21t42 14l4 1v56v4v1q2 17 12 30q3 4 6 7q0 1 2 1q4 4 6 5l2 2h1l1 1h1q2 2 4 2.5t5 1.5l2 1h4q2 1 5 1.5t6 0.5h21q5 0 11 -2q1 0 3 -1h3l5 -2q1 0 4 -2l1 -1h2l2 -2l7 -5q0 -1 1 -1q3 -3 7 -8q3 -4 5 -8.5t3.5 -9.5t2.5 -11v-1v-4v-56l4 -1
q43 -10 83 -35l3 -2l41 40q13 14 33 16q4 1 7 1h2h2l8 -1q1 -1 2 -1h2l1 -1q4 -1 5.5 -1.5t5.5 -2.5l1 -1q2 -1 3 -2q2 -1 4 -3l4 -4l15 -15q4 -4 7 -8q1 -1 2 -4l1 -1q0 -1 1 -1q1 -3 2 -4q0 -2 1 -5l1 -2l1 -3q0 -3 1 -8v-1v-1v-4q0 -3 -1 -6q-2 -19 -16 -33l-40 -40l2 -3
q12 -20 21 -41t14 -42l1 -4h56h4h1q9 -1 16.5 -4t13.5 -8l7 -6l2 -2q3 -4 5 -6q0 -1 1 -3v-1l1 -1q2 -3 2 -4l2 -5l1 -3q0 -2 1 -3q1 -6 1 -11v-21z" />
    <glyph glyph-name="uniE60A" unicode="&#xe60a;" horiz-adv-x="1027" 
d="M77 896h870q32 0 54.5 -22.5t22.5 -54.5v-870q0 -32 -22.5 -54.5t-54.5 -22.5h-870q-32 0 -54.5 22.5t-22.5 54.5v870q0 32 22.5 54.5t54.5 22.5zM77 896zM854 434h-53q-11 66 -50 121l37 37q14 15 14 35t-14 34.5t-34.5 14.5t-34.5 -14l-37 -38q-55 39 -121 50v53
q0 13 -6.5 24.5t-18 18t-24.5 6.5t-24.5 -6.5t-18 -18t-6.5 -24.5v-53q-33 -5 -63.5 -18t-57.5 -32l-37 38q-14 14 -34.5 14t-34.5 -14.5t-14 -34.5t14 -35l37 -37q-39 -55 -50 -121h-53q-20 0 -34.5 -14t-14.5 -34.5t14.5 -34.5t34.5 -14h53q11 -67 50 -121l-37 -38
q-14 -14 -14 -34t14 -35q9 -9 21.5 -12.5t25.5 0t22 12.5l37 38q27 -19 57.5 -32t63.5 -18v-53q0 -14 6.5 -25t18 -17.5t24.5 -6.5q20 0 34.5 14t14.5 35v53q66 11 121 50l37 -38q6 -5 13 -8.5t14.5 -5t14.5 0t14.5 5t12.5 8.5q14 15 14 35t-14 34l-37 38q39 54 50 121h53
q13 0 24 6.5t18 17.5t7 24q0 21 -14.5 35t-34.5 14zM512 190q-81 0 -138 57.5t-57 137.5q0 23 5 45t14.5 41t23 36t30.5 30.5t36 23t41 15t45 5.5q81 0 138 -57.5t57 -138.5q0 -53 -26 -98t-71 -71t-98 -26zM512 483q-11 0 -22 -2.5t-21 -7.5t-18.5 -11.5t-15 -15t-11.5 -18
t-7.5 -20.5t-2.5 -23q0 -40 29 -68.5t69 -28.5q16 0 31 5t27 14t21 21t14 26.5t5 30.5q0 41 -29 69.5t-69 28.5zM512 483z" />
    <glyph glyph-name="uniE60B" unicode="&#xe60b;" 
d="M1018 289q0 -60 -13.5 -117t-38.5 -107t-60 -94t-79 -79t-94 -60t-107 -38.5t-116 -13.5q-104 0 -198 40.5t-162 108.5t-108.5 162t-40.5 197.5t40.5 197.5t108.5 162t162 108.5t197.5 40.5t197.5 -40.5t162 -108.5t108.5 -162t40.5 -197zM190 326q26 -22 56 -49l29 33
q-27 23 -58 48zM196 146q21 -6 44 -13q17 50 34 120q-21 6 -43 15q-18 -73 -35 -122zM202 408q35 -30 51 -46l30 32q-24 20 -55 43zM279 315h89v-40h-77v-145h44v16h112v-16h43v145h-77v40h90v38h-90v40q41 2 79 5l-5 37q-97 -9 -203 -11q4 -20 5 -36l79 3v-38h-89v-38z
M447 184h-112v53h112v-53zM602 273q11 -27 23 -59q-24 -2 -53 -3q17 44 32 89h61v41h-147v-41h40q-25 -86 -41 -100l20 -38q10 4 30 6l88 8q-7 -11 -17 -20q21 -13 39 -27q22 25 35 56t17.5 62t5.5 102h42q-1 -62 -2 -104t-2 -49t-6 -10q-1 -1 -2.5 -2t-3.5 -1.5t-4 -0.5h-4
h-11q-5 0 -11 0.5t-13 0.5q6 -23 11 -48q47 1 57.5 4t17.5 10q3 4 5.5 8t3.5 8q2 10 3 46l4 180h-84l1 54h-43v-54h-33v-42h32q0 -105 -21 -145l-34 80zM654 421h-122v-40h122v40z" />
    <glyph glyph-name="uniE60C" unicode="&#xe60c;" 
d="M512 761q-96 0 -183.5 -37.5t-151 -101t-101 -151t-37.5 -183.5t37.5 -183.5t101 -151t151 -101t183.5 -37.5t183.5 37.5t151 101t101 151t37.5 183.5q0 55 -12.5 108t-36 99.5t-55.5 88t-73.5 73.5t-88 55.5t-99.5 36t-108 12.5zM512 -106q-107 0 -197.5 53
t-143.5 143.5t-53 197.5q0 80 31.5 153t84 125.5t125.5 84t153 31.5q107 0 197.5 -53t143.5 -143.5t53 -197.5q0 -80 -31.5 -153t-84 -125.5t-125.5 -84t-153 -31.5zM651 558l-141 -219l-138 216l-72 -44l120 -178h-106v-60h152v-92h-152v-60h152v-154h91v154h153v60h-153
v92h153v60h-110l121 178z" />
    <glyph glyph-name="uniE60D" unicode="&#xe60d;" 
d="M338 452l-31 20q-93 48 -164 -5q-92 -69 -58 -172q31 -94 149 -168q125 -77 285 -91q-2 3 -3.5 9.5t-0.5 27.5t7.5 43.5t27 57t52.5 69.5q36 39 46 87.5t-1 89.5t-35 73.5t-53 43.5q-65 27 -125.5 6t-95.5 -91zM801 248q2 1 5 4t12.5 8.5t19.5 9t25.5 3t30.5 -7.5
q40 -18 47.5 -62t-19.5 -77q-21 -27 -82.5 -50.5t-106.5 -27.5q1 1 1.5 3t-1.5 9.5t-7 16t-18 22.5t-32 29q-28 21 -34 54t6.5 60.5t34.5 38.5q17 9 33 11t31 -2t29 -14.5t25 -27.5z" />
    <glyph glyph-name="uniE60E" unicode="&#xe60e;" horiz-adv-x="1071" 
d="M0 812zM388 -143q0 -19 -7 -35t-19.5 -25t-26.5 -9q-23 0 -38.5 20t-15.5 49v692q0 28 15.5 48t38 20t38 -20t15.5 -48v-692zM992 253q-17 -2 -76 -20.5t-112 -32t-67 -10.5q-10 3 -14 13t-5 20.5t-15 19.5t-42 9q-106 0 -205 -36l-4 -2h-6q-2 -1 -5.5 -1t-6.5 1t-6 3.5
t-5 7t-3.5 12t-1.5 15.5v242q0 24 11.5 42t24.5 26l12 6q9 4 24.5 10t65.5 17t106 10q26 0 39 -8t14.5 -18.5t5.5 -21t16 -12.5q17 -5 75 7.5t108 28.5l50 14q28 7 43.5 2t20 -18.5t4.5 -47.5v-212q0 -15 -1.5 -25.5t-13 -23t-31.5 -17.5z" />
    <glyph glyph-name="uniE60F" unicode="&#xe60f;" 
d="M64 262l64 -52l-25 -332h89l13 281h38l26 -281h77l-13 320l-13 217l205 13l51 64l-231 15h-101l7 -13l-10 -20l22 -154l-34 -34v-3l-1 1l-2 -1v3l-34 34l22 154l-10 20l8 13l-97 -2zM224 722q-40 0 -68 -28t-28 -67.5t28 -68t68 -28.5t68 28.5t28 67.5q0 41 -26 68.5
t-65 27.5h-5zM448 308l88 31l7 2l6 -4l66 -42l55 157l8 24l17 -18l50 -53l73 125l27 -15l-84 -144l-10 -17l-14 14l-47 50l-53 -151l-6 -18l-16 10l-76 48l-81 -28zM448 -71h307v-51h-307v51zM640 95v-153h-77v153h-166v64h499v474h-525v64h550h39v-32v-455v-115h-64h-256z
" />
    <glyph glyph-name="uniE610" unicode="&#xe610;" horiz-adv-x="1065" 
d="M749 648h102v124q0 7 -2.5 12.5t-7.5 10t-11 7t-13 2.5h-135v-94q0 -6 1 -12t3.5 -11.5t6.5 -11t9 -9.5q4 -4 10 -7.5t12 -5.5t12.5 -3.5t12.5 -1.5zM565 149v13q0 7 1 12h-222q-7 0 -14 1.5t-13.5 5t-12.5 7.5q-17 16 -17 37q0 23 17 38q16 16 40 16h261q18 25 40.5 45
t49.5 34q55 29 124 29h15q2 0 7.5 -0.5t8.5 -0.5v209h-130h-10q-5 0 -9.5 1t-8.5 2t-8 3l-8 4q-9 6 -16.5 12.5t-12.5 13.5q-10 14 -17 34q-6 21 -6 35v105h-415q-13 0 -24 -9q-10 -10 -10 -22v-728q0 -12 10 -22q2 -2 5 -4t6 -3t6.5 -1.5t6.5 -0.5h401q-22 27 -33 63
q-4 11 -6.5 23t-4 23.5t-1.5 24.5zM304 474q15 14 40 14h338q22 0 40 -14q17 -17 17 -37q0 -23 -17 -38q-18 -16 -40 -16h-338q-7 0 -14 2t-13.5 5.5t-12.5 8.5q-8 8 -12.5 17.5t-4.5 20.5q0 23 17 37zM1005 220q-17 35 -42 59q-28 26 -63 40q-38 15 -77 15q-40 0 -76 -15
q-34 -13 -62 -40q-26 -24 -43 -59q-15 -33 -15 -72q0 -38 15 -72q17 -35 43 -59q27 -26 62 -40q4 -2 8 -3.5t8.5 -2.5t8.5 -2l8 -2q4 -1 8.5 -2t8.5 -1.5t8.5 -0.5t9 -0.5t8.5 -0.5q20 0 39.5 4t37.5 11q34 13 63 40q25 24 42 59q16 33 16 72t-16 72zM960 223l-182 -182
l-6 -2q-3 0 -5 2l-82 71q-2 2 -2 4t2 4l25 23q1 1 2.5 1.5t2.5 0.5t6 -2l46 -41q2 -2 5.5 -2t5.5 2l147 152l1 1q2 1 4 1q3 0 5 -2l25 -24q3 -2 3 -4q-1 0 -1.5 -1t-1.5 -2v0z" />
    <glyph glyph-name="uniE611" unicode="&#xe611;" horiz-adv-x="1345" 
d="M1286 721q-20 0 -35 14.5t-15 35.5q3 12 -4.5 20.5t-20.5 8.5h-1082q-13 0 -21 -8t-8 -21q0 -9 -4 -18t-10.5 -16t-15.5 -11.5t-20 -4.5q-20 0 -35 14.5t-15 35.5q0 53 37 89t88 36h1082q52 0 88 -37t36 -88q2 -14 -3.5 -25.5t-16.5 -18t-25 -6.5v0zM1211 -127h-1082
q-68 0 -104 54q-21 32 -21 70q0 20 14.5 35t35.5 15q13 0 24 -6t18.5 -18t7.5 -26q0 -12 8.5 -20.5t20.5 -8.5h1082q8 0 14.5 4t10.5 10.5t4 14.5q0 20 14.5 35t35.5 15q19 0 34.5 -14.5t15.5 -35.5q-2 -14 -6.5 -27.5t-12 -26t-16.5 -23.5t-20.5 -19.5t-24 -15t-26 -9.5
t-27.5 -3v0zM171 180v50h74v304l-83 -29l-4 54l117 42h29v-367h62v-49h-195v-5v0zM516 409q-21 28 -21 67q0 53 37.5 89t95.5 36q64 -4 101 -37.5t37 -91.5q0 -44 -23 -80.5t-73 -77.5q-6 -7 -23 -22.5t-32 -31t-28 -30.5h183v-50h-275v30q69 76 146 145q19 18 32 32.5
t21.5 29t12.5 27.5t4 28q0 17 -5 31t-15 23.5t-25 15t-34 5.5q-16 0 -30.5 -5.5t-24 -14.5t-14.5 -21t-5 -26t3.5 -25.5t12.5 -20.5l-58 -25v0zM953 284q34 -62 87 -62q25 0 44 10t29 28t10 41q0 14 -3 25t-8.5 19.5t-14 14.5t-20 9t-24.5 3h-30v50h30q55 6 58 62
q0 28 -20 45.5t-51 17.5q-53 0 -83 -67l-46 29q44 87 133 87q23 0 42.5 -4.5t35.5 -14t27.5 -23t17.5 -31.5t6 -39q0 -30 -14 -52.5t-40 -38.5q33 -13 50 -36.5t17 -59.5q0 -29 -10.5 -53.5t-29 -41t-45 -25.5t-57.5 -9q-45 0 -77.5 20t-55.5 59l42 37v0z" />
    <glyph glyph-name="uniE612" unicode="&#xe612;" horiz-adv-x="1098" 
d="M1058 677l-509 -402l-510 402l493 219zM0 -48v645l353 -282l-349 -386q-4 13 -4 23zM61 -126l354 387l134 -104l128 105l359 -388q-4 -1 -487.5 -1t-487.5 1zM1093 -71l-349 386l353 282v-645q0 -10 -4 -23z" />
    <glyph glyph-name="uniE613" unicode="&#xe613;" 
d="M512 864q-98 0 -186.5 -38t-153 -102.5t-102.5 -153t-38 -186.5t38 -186.5t102.5 -153t153 -102.5t186.5 -38t186.5 38t153 102.5t102.5 153t38 186.5t-38 186.5t-102.5 153t-153 102.5t-186.5 38zM782 264h-240v-150h-60v150h-240v60h240v90h-210v60h153l-143 143l42 42
l178 -178l-6 -7h33l-7 7l178 178l43 -42l-144 -143h153v-60h-210v-90h240v-60z" />
    <glyph glyph-name="uniE614" unicode="&#xe614;" 
d="M127 793h291h27h137h153h164q20 0 34.5 12.5t14.5 30.5t-14.5 31t-34.5 13h-164h-153h-137h-27h-291q-20 0 -34 -13t-14 -31t14 -30.5t34 -12.5zM417 402zM976 706h-928q-20 0 -34 -14t-14 -34v-130v-462v-129q0 -20 14 -34t34 -14h928q20 0 34 14t14 34v129v462v130
q0 20 -14 34t-34 14zM671 253q13 0 24 -6t17.5 -16t6.5 -21q0 -9 -3.5 -17t-10 -14t-15.5 -9.5t-19 -3.5h-116v-104q0 -20 -12.5 -34.5t-30.5 -14.5q-12 0 -22 6.5t-15.5 17.5t-5.5 25v104h-116q-20 0 -34 13t-14 30.5t14 30.5t34 13h116v62h-116q-20 0 -34 12.5t-14 30.5
t14 31t34 13h64l-24 45l-28 53q-9 18 -4.5 36.5t20.5 26.5q11 5 22.5 4.5t22 -8t16.5 -18.5l23 -44l1 -1v-1l23 -44l24 -45l23 45l24 44l1 2l22 44q10 17 27.5 24t33.5 -1.5t20.5 -27t-4.5 -36.5l-28 -53l-24 -45v0v0h63q13 0 24 -6t17.5 -16t6.5 -22q0 -18 -14 -30.5
t-34 -12.5h-116v-62h116z" />
    <glyph glyph-name="uniE615" unicode="&#xe615;" 
d="M1014 548l-58 57q-8 8 -19.5 10t-23 -2t-21.5 -14l-434 -434q-14 -14 -15.5 -32.5t10.5 -30.5l57 -58q12 -12 30.5 -10t33.5 16l434 434q14 14 16 33t-10 31zM570 -35l-149 -71h320q10 0 19 3.5t15.5 10.5t10.5 16t4 19v254l-189 -203zM409 177l381 384v241
q0 6 -1.5 11.5t-4 10t-5.5 9t-7.5 7.5t-9.5 5.5t-10.5 4t-10.5 1.5h-688q-20 0 -34.5 -14.5t-14.5 -34.5v-859q0 -8 2.5 -15.5t7 -13.5t10.5 -10.5t13.5 -7t15.5 -2.5h224l91 221l11 25q5 12 30 37zM127 777h516q20 0 34.5 -8.5t14.5 -21.5t-14.5 -21.5t-34.5 -8.5h-516
q-20 0 -34.5 8.5t-14.5 21.5t14.5 21.5t34.5 8.5zM127 616h516q20 0 34.5 -9.5t14.5 -22.5q0 -7 -4 -12.5t-10.5 -10t-15.5 -7t-19 -2.5h-516q-13 0 -24.5 4.5t-18 11.5t-6.5 16q0 13 14.5 22.5t34.5 9.5zM127 385q-20 0 -34.5 9.5t-14.5 23t14.5 23t34.5 9.5h319
q21 0 35 -9.5t14 -23t-14 -23t-35 -9.5h-319zM404 98l-92 -213l206 105z" />
    <glyph glyph-name="uniE616" unicode="&#xe616;" 
d="M933 -80q0 -17 -12 -29t-28 -12h-762q-16 0 -28 12t-12 29v0q0 3 0.5 8.5t2.5 22t5.5 32.5t11.5 37t18.5 39t28 35.5t38.5 28.5q34 17 58.5 20.5t64.5 20.5q36 15 61 27t33 16l7 4v80q0 1 -1 2t-4.5 5t-7 9t-7.5 13.5t-7.5 18t-7 23.5t-5.5 29q-4 -1 -8 0t-7 4.5t-5 7.5
t-3 9.5t-2 10.5t-1 10q0 2 -1.5 13.5t-1.5 19.5t0.5 17.5t4.5 14t10 3.5q-8 66 -6 88q4 49 46.5 88.5t106.5 43.5q72 -4 109.5 -41.5t42.5 -90.5q1 -6 0 -22.5t-2.5 -30.5t-4.5 -35q5 1 8.5 -1.5t4.5 -7t2 -10.5t0.5 -13.5t-1 -13.5t-1.5 -13t-1 -9q0 -11 -2.5 -20.5
t-8.5 -16.5t-15 -5q-5 -33 -15 -58t-17 -33l-8 -8v-80q20 -12 101 -47q40 -17 64.5 -21t58.5 -21q16 -9 30.5 -21.5t24.5 -26.5t18.5 -29t13.5 -30t8.5 -29t5 -26t2.5 -21.5t1 -14.5z" />
    <glyph glyph-name="uniE617" unicode="&#xe617;" 
d="M611 379q32 14 66.5 21t70.5 7q72 0 138 -28q39 -17 73 -42q-18 107 -26 165q-6 47 -9 99.5t-3 82.5v30q-101 -53 -179 -53q-34 0 -68 5t-61 13.5t-50 20.5q-17 9 -36.5 16t-42.5 12.5t-48.5 8t-51.5 2.5q-76 0 -173 -51l40 -433q8 4 21 11.5t21 12t21 10.5t24.5 9.5
t27 5.5t32.5 2q13 0 25.5 -0.5t24 -2t22 -3.5t21.5 -5q1 2 3 3l2 3l2 2q25 25 53 44t60 32zM121 786q-19 0 -32.5 -13.5t-13.5 -33.5l78 -923l93 8l-78 915q0 10 -4 18.5t-10 15t-14.5 10t-18.5 3.5zM247 -178q0 -19 -14 -32.5t-33 -13.5t-32.5 13.5t-13.5 32.5
q0 20 13.5 33.5t32.5 13.5q8 0 15 -2.5t12.5 -6.5t10 -10t7 -13t2.5 -15zM748.5 327q-113.5 0 -193.5 -80t-80 -193.5t80 -193.5t193.5 -80t193.5 80t80 193.5t-80 193.5t-193.5 80zM938 119l-210 -210q-10 -10 -24.5 -10t-25.5 10l-119 119q-4 4 -6.5 9t-3.5 10.5t0 10.5
t3.5 10t6.5 9q6 7 15 9.5t18 0t16 -9.5l95 -95l186 186q3 3 7 5.5t8.5 3.5t9 1t8.5 -1t8 -3.5t8 -5.5q10 -10 10 -24.5t-10 -24.5z" />
    <glyph glyph-name="uniE618" unicode="&#xe618;" 
d="M709 728q-46 -71 -58.5 -139.5t9 -132.5t60 -120t100.5 -119q22 24 26 51.5t-3.5 48t-18 49.5t-12.5 50q157 -116 148 -262q-3 -49 -25.5 -91.5t-62 -77t-86 -61t-108.5 -52.5q8 13 24 38.5t26.5 43.5t18.5 35q25 50 -20 119q-3 -3 -6 -7t-5 -7l-6 -8q-2 -3 -4 -6.5
t-4 -6.5l-6 -6l-4 -6l-4 -6h-1h-1h-1l-2 1h-1h-1h-1l-1 1v125q-9 -6 -20 -12.5t-17.5 -10.5t-12.5 -8q-9 20 -21 44.5t-21.5 44t-21.5 44.5t-21 44q-2 0 -4 -0.5t-4 -0.5t-4 -0.5t-4 -0.5t-4 -0.5t-4 -0.5h-4v-69q2 -126 -131 -202l-31 -13q15 98 18 112q-98 -44 -108 -120
q-2 -20 1 -42t10 -49.5t9 -39.5q-69 19 -134 95t-82 163q-4 22 -4 45t5 47t13 47t20 45t26.5 41t31.5 34.5t36 26.5q8 -15 9.5 -38.5t1 -41.5t13.5 -37t45 -30q0 15 -1 44.5t-0.5 51.5t3.5 42q9 70 86 117q4 -14 12.5 -49.5t13.5 -54.5h1l1 -1h1h1h1h1h1l1 -1h1h1h1h1h1h1
l1 -1h1h1h2q29 58 73 108.5t102.5 93t135.5 79.5z" />
    <glyph glyph-name="uniE619" unicode="&#xe619;" horiz-adv-x="1073" 
d="M0 800zM382 -140q0 -18 -7 -34t-20 -25q-4 -3 -8 -4.5t-8.5 -2.5t-9.5 -1q-11 0 -20.5 5t-16.5 14q-15 20 -15 48v681q0 9 1.5 17.5t5 16t8.5 14.5q15 20 37 20q11 0 20.5 -5t17.5 -15q15 -20 15 -48v-681v0zM976 250q-17 -2 -75 -20t-110 -31.5t-66 -10.5q-5 1 -8 4.5
t-6 8.5q-4 9 -5 20q0 5 -4 10t-10 9q-14 9 -42 9q-52 0 -102.5 -9t-99.5 -26q-1 -1 -4 -2q-3 0 -5 -1q-3 0 -6 -1q-3 0 -6 2q-2 0 -3.5 1t-2.5 2q-3 2 -5 7q0 2 -1 3.5t-1.5 4t-0.5 4.5q-1 3 -1.5 7t-0.5 8v238q0 6 0.5 11.5t2 10.5t4 10t5.5 9.5t5.5 8.5t6 7t6.5 5.5t6 4.5
l12 5q3 2 6.5 3.5t7.5 3.5t9 4q15 6 65 16q25 6 51 8.5t53 2.5q26 0 39 -8t14 -19v-6l2 -4q0 -3 1 -5.5t2 -4.5q4 -10 16 -13q16 -4 73 8q29 6 55.5 13t51.5 14l49 14q28 7 43 2.5t19.5 -18t4.5 -47.5v-207v-14q0 -7 -1 -12q-3 -11 -13 -23q-11 -12 -31 -17v0z" />
    <glyph glyph-name="uniE61A" unicode="&#xe61a;" horiz-adv-x="1569" 
d="M260 468l43 52q1 -1 2.5 -2t3 -2.5t3.5 -2.5t4 -3t4 -3q17 -15 31 -27t25.5 -22t20.5 -18l-47 -51q-16 15 -31 29t-30 26.5t-29 23.5zM326 374q16 -6 33 -11.5t36 -9.5q-32 -124 -56 -191q-18 7 -35.5 12.5t-33.5 9.5q26 74 56 190zM279 599l43 45q50 -37 88 -69l-48 -49
q-8 9 -32 28q-32 28 -51 45zM403 451v60h143v60q-10 0 -26 -0.5t-38 -1.5q-42 0 -64 -2v6q0 5 -1 10.5t-2 12t-2.5 13.5t-2.5 15q172 7 325 18l8 -58q-21 -2 -41.5 -4t-42 -3t-42.5 -2v-64h143v-60h-143v-64h124v-227h-71v24h-179v-26h-69v229h124v64h-143zM670 242v83h-179
v-83h179zM946 383l56 19q8 -21 28 -64q17 -43 26 -64q36 62 34 231h-52v66h54q0 43 2 88h66v-88h133q-2 -227 -6 -334q-3 -62 -67 -68h-28q-28 -2 -42 -2q-5 19 -9.5 37t-10.5 35q13 0 35 -2h19q34 0 34 26q6 83 6 242h-66q0 -38 -2 -71q0 -175 -90 -276l-12 10l-12 8
q-6 5 -12.5 9t-12.5 8t-13 8q5 4 11 13q10 8 15 15q-19 -3 -51 -5q-60 -4 -84 -6q-34 -2 -56 -9l-29 58q25 24 64 161h-62v64h235v-64h-98l-52 -144q15 0 43 2q28 0 41 3q-9 29 -30 81q-1 2 -1.5 4t-1.5 4v2q-1 2 -2 3zM1028 620v-66h-195v66h195zM1047 -79h-517
q-75 0 -145.5 23.5t-127.5 66t-99.5 99.5t-66 127.5t-23.5 145.5q0 93 36.5 178.5t98.5 147.5t147.5 98.5t179.5 36.5h517q75 0 145.5 -23t127 -66t99.5 -99.5t66 -127t23 -145.5q0 -174 -115 -305q-111 -126 -275 -152q-36 -5 -71 -5zM530 780q-108 0 -199.5 -53.5
t-144.5 -145t-53 -199t53 -199t144.5 -144.5t199.5 -53h517q107 0 198.5 53t145 144.5t53.5 199.5q0 80 -31.5 153.5t-85 127t-127 85t-153.5 31.5h-517z" />
  </font>
</defs>
</svg>
